<?xml version="1.0" encoding="UTF-8"?>
<svg id="Warstwa_1" data-name="Warstwa 1" xmlns="http://www.w3.org/2000/svg" viewBox="0 0 396.38 81.99">
  <defs>
    <style>
      .cls-1 {
        fill: #1f6b87;
      }

      .cls-1, .cls-2, .cls-3, .cls-4, .cls-5, .cls-6, .cls-7 {
        stroke-width: 0px;
      }

      .cls-2 {
        fill: #fdfdfd;
      }

      .cls-3 {
        fill: #fbfcfd;
      }

      .cls-4 {
        fill: #fcfdfd;
      }

      .cls-5 {
        fill: #fcfcfd;
      }

      .cls-6 {
        fill: #1e6b86;
      }

      .cls-7 {
        fill: #fefefe;
      }
    </style>
  </defs>
  <path class="cls-7" d="M76.66,38.74c.08.07.16.14.24.21-1.88,3.15-3.84,6.25-5.61,9.46-1.22,2.21-1.99,4.61-2.01,7.19-.03,3.5,2.11,4.98,5.36,3.68.73-.29,1.47-.66,2.1-1.13,1.65-1.25,3.31-2.51,4.85-3.89,1.93-1.71,3.76-3.54,5.73-5.41.09.51.17.9.23,1.28.42,2.4,1.32,4.59,2.9,6.47,2.49,2.98,6.01,3.85,9.31,1.83,2.2-1.36,4.01-3.35,6.03-5.02.39-.32.94-.65,1.4-.63,2.58.13,4.78-.73,6.69-2.41,1.68-1.47,3.35-2.94,5.03-4.42.09.06.17.12.26.19-.73,2.15-1.52,4.28-2.18,6.45-.61,2.01-.84,4.07.02,6.09.78,1.86,2.09,2.72,4.09,2.69,2-.04,3.79-.86,5.28-2.04,3.21-2.56,6.27-5.3,9.37-8,.75-.66,1.41-1.43,2.22-2.26.1.49.16.75.21,1.02.4,2.32,1.25,4.45,2.73,6.3,2.66,3.32,6.42,4.13,9.98,1.79,2.01-1.32,3.66-3.17,5.5-4.75.36-.31.86-.68,1.27-.65,3.03.23,5.31-1.2,7.61-2.94,1.58-1.19,1.49-2.55,1.35-4.22-1.33.9-2.51,1.79-3.78,2.53-1.24.72-2.03.52-2.78-.46.16-.31.34-.62.5-.94,1.72-3.37,3.02-6.85,3.06-10.7.02-1.91-.52-3.4-2.74-3.76.15-.27.24-.43.34-.6.98-1.72.52-3.11-1.43-3.54-1.37-.3-2.87-.37-4.26-.16-3.42.52-6.25,2.35-8.83,4.55-4.05,3.45-7.32,7.45-8.61,12.78-.08.32-.32.66-.58.85-2.26,1.71-4.51,3.44-6.84,5.04-.93.64-2.05,1.09-3.15,1.39-1.73.47-2.97-.46-3-2.25-.02-1.34.1-2.72.42-4.02,1.01-4.04,3.28-7.5,5.18-11.13,1.01-1.93,2.14-3.07,4.39-2.34,2.54.81,3.94-.49,5.13-2.51,1.33-2.26,2.83-4.41,4.37-6.8-1.66-.22-3.02-.4-4.56-.6.33-.5.56-.9.83-1.27,1.08-1.44,2.21-2.84,3.25-4.3.97-1.35.61-2.07-1.08-2.24-2.28-.23-4.22.53-5.66,2.26-1.21,1.47-2.19,3.13-3.34,4.66-.26.34-.77.65-1.18.69-1.27.1-2.56,0-3.83.08-2.23.14-4.51.45-5.95,2.34-1.47,1.92-2.66,4.05-3.9,6.14-.27.46-.27,1.09-.36,1.51,2.79-.22,5.4-.42,8.02-.62l.29.53c-2.89,3.59-5.67,7.29-8.73,10.73-1.59,1.79-3.62,3.23-5.57,4.65-1.14.83-2.01.58-2.84-.37.16-.3.33-.61.5-.92,1.69-3.21,2.91-6.56,3.09-10.22.1-2.03-.17-3.9-2.7-4.3,1.41-2.62.74-4.01-2.12-4.39-1.09-.14-2.29-.19-3.33.09-8.27,2.29-13.66,7.82-16.81,15.57-.69,1.7-1.49,2.98-2.99,3.89-1.84,1.12-3.61,2.37-5.55,3.29-1.99.94-3.4-.24-2.94-2.4.24-1.15.67-2.34,1.35-3.29,2.25-3.15,4.62-6.21,6.99-9.26,1.23-1.58,1.24-2.3-.19-4.24-1.16-1.58-2.34-2.04-3.9-1.25-1.45.73-2.86,1.6-4.15,2.59-4.96,3.81-9.25,8.33-13.53,12.87-.85.91-1.71,1.81-2.79,2.97,0-1.55-.07-2.75.03-3.93.05-.62.28-1.33.67-1.8,2.81-3.38,5.75-6.65,8.52-10.05,6.78-8.29,13.08-16.94,18.83-25.97.57-.9,1.11-1.87,1.43-2.88.16-.52,0-1.43-.36-1.78-1.21-1.15-3.32-1.17-4.61-.08-1.37,1.15-2.7,2.38-3.91,3.7-6.18,6.83-11.48,14.33-16.65,21.92-2.78,4.08-5.6,8.18-7.93,12.52-2.57,4.77-2.78,10-1.45,15.25.29,1.15.87,2.18,2.18,2.47,1.33.3,2.06-.58,2.79-1.46,3.47-4.18,6.92-8.37,10.43-12.52,1.81-2.15,3.89-4.01,6.38-5.37ZM294.12,40.5l-.02-.02c.01-.15-.03-.33.04-.44,2.45-3.97,4.79-8.01,7.41-11.86,1.4-2.06,3.33-3.76,4.91-5.72.68-.85,1.2-1.89,1.56-2.92.35-.99-.14-1.52-1.18-1.57-2.29-.12-4.4.43-6.04,2.08-1.38,1.38-2.69,2.84-3.87,4.4-5.48,7.22-10.89,14.49-17.02,21.2-1.93,2.11-4.12,3.72-6.59,5.01-.76.4-1.65.63-2.51.7-1.67.14-2.64-.69-2.92-2.34-.28-1.6.07-3.1.99-4.44,1.4-2.04,2.83-4.06,4.24-6.09.75-1.08.83-2.19.25-3.39-.48-1-.88-2.04-1.32-3.08.67-.3,1.33-.51,1.89-.86.33-.21.67-.61.74-.98.34-1.78-1.81-4.44-3.6-4.26-1.73.17-3.48.51-5.12,1.07-7.8,2.68-14.24,7.46-19.9,13.34-1.37,1.42-2.55,2.97-2.85,5.02-.03.18-.15.39-.3.49-2.35,1.57-4.65,3.22-7.08,4.65-1.06.62-2.45.74-3.5-.2-1.1-.98-.59-2.23-.18-3.35,1-2.73,2.53-5.15,4.43-7.34,1.12-1.3,2.33-2.52,3.41-3.86,1.52-1.9.77-3.87-.06-5.75-.74-1.66-2.29-1.17-3.58-1.04-3.25.33-6.49.76-9.76,1.16.33-.69.74-1.35.96-2.06.13-.44.14-1.09-.1-1.42-.17-.23-.92-.24-1.31-.08-.8.32-1.62.71-2.29,1.26-2.49,2.02-4.35,4.56-5.64,7.49-1.29,2.94-.86,4.26,1.78,5.96.03.02.05.06.23.31-1.39,1.61-2.61,3.51-4.28,4.85-2.88,2.32-6.03,4.33-9.1,6.42-1.69,1.15-3.46,2.19-5.2,3.27,1.32-2.68,2.89-5.11,4.33-7.62,4.06-7.09,8.07-14.22,12.11-21.33.72-1.28.52-2.46-.38-3.55-.95-1.15-2.26-1.72-3.63-1.16-1.13.46-2.15,1.31-3.08,2.15-.88.8-1.48,1.89-2.36,2.7-7.22,6.61-14.7,12.93-22.66,18.64-1.64,1.18-3.46,2.13-5.3,2.99-1.38.65-2.89.75-4.15-.42-1.25-1.16-1.38-2.61-.99-4.19.77-3.1,2.23-5.89,4.02-8.5,7.91-11.57,18.83-19.24,31.74-24.3,1.1-.43,2.24-.73,3.56-1.16-.9,3.72-4.6,4.71-6.32,7.46.51.02.97-.02,1.34-.23,3.36-1.83,6.74-3.62,10.03-5.57,1.15-.68,2.15-1.67,3.05-2.66,1.77-1.96,1.86-5.67.3-7.81-.73-1-1.72-1.59-2.96-1.54-1.27.05-2.56.11-3.8.37-5.98,1.22-11.62,3.43-17.08,6.1-8.56,4.17-16.34,9.39-22.26,17.02-4.09,5.28-7.24,11.01-7.9,17.8-.4,4.13.18,8.06,2.93,11.39,2.13,2.59,5.1,3.42,8.16,2.08,1.63-.71,3.2-1.66,4.63-2.71,3.19-2.34,6.28-4.8,9.41-7.22,3.82-2.96,7.63-5.92,11.44-8.88,0,0-.02-.03-.02-.03-.09.35-.12.73-.28,1.04-4.32,8.43-9.35,16.43-14.62,24.29-.8,1.19-1.77,2.08-2.99,2.83-3.42,2.08-6.67,4.41-9.37,7.4-1.68,1.87-3.04,3.91-3.36,6.48-.37,2.92,1.99,4.84,4.69,3.68,1.21-.52,2.47-1.28,3.31-2.26,3.85-4.48,7.56-9.08,11.35-13.61.68-.81,1.45-1.59,2.3-2.21,3.18-2.34,6.44-4.58,9.62-6.93,3.6-2.65,7.26-5.23,10.65-8.13,2.07-1.77,4.14-3.83,5.38-6.19,1.52-2.9,3.64-3.99,6.62-4.19,1.18-.08,2.35-.38,3.83-.62-.42.57-.63.85-.85,1.13-2.32,3.01-4.53,6.08-5.99,9.63-.96,2.33-1.19,4.71-.61,7.15.79,3.3,3.36,4.62,6.37,3.08,1.68-.86,3.25-2.03,4.69-3.28,2.2-1.9,4.24-3.97,6.43-6.04.09.51.16.97.26,1.42.66,2.98,1.88,5.67,4.07,7.86,1.22,1.23,2.02,1.44,3.52.56,1.32-.78,2.61-1.72,3.69-2.81,2.92-2.94,5.73-6,8.58-9.01.07.06.14.11.21.17-.34,1.06-.73,2.11-1.02,3.19-.68,2.54-1.42,5.09-.84,7.77.44,2.01,1.82,3.05,3.76,2.41,1.71-.56,3.41-1.38,4.86-2.44,4.01-2.93,7.42-6.52,10.61-10.32,3.13-3.73,6.42-7.33,9.62-11,1.14-1.31,2.24-2.66,3.36-4,.09.45-.01.77-.17,1.07-1.19,2.35-2.39,4.69-3.59,7.03-3.55,6.89-7.7,13.41-12.03,19.84-2.03,3.02-3.65,6.31-4.27,9.93-.28,1.62-.28,3.34-.06,4.97.2,1.5,1.61,1.89,2.65.79,1.03-1.09,2.04-2.29,2.7-3.63,1.44-2.93,2.65-5.97,3.94-8.97,1.03-2.39,2.05-4.79,2.93-6.86,1.65.31,2.99.59,4.33.81.8.13,1.63.07,2.41.25.77.18,1.5.54,2.23.85,3.38,1.41,6.69,1.22,9.7-.84,2.86-1.96,5.56-4.14,8.31-6.26.95-.73,1.84-1.56,2.68-2.29.32,2.05.56,4.02.96,5.95.24,1.16.86,2.18,2.17,2.47,1.33.3,2.06-.59,2.79-1.46,3.47-4.17,6.92-8.37,10.42-12.52,1.81-2.14,3.89-4.01,6.38-5.36.08.07.16.14.24.21-1.9,3.19-3.88,6.32-5.66,9.57-1.33,2.43-2.15,5.07-1.93,7.92.17,2.24,1.37,3.39,3.59,3.21.92-.07,1.94-.36,2.69-.87,2.04-1.39,4.03-2.86,5.91-4.47,1.99-1.7,3.82-3.59,5.8-5.48.2,1.29.31,2.48.59,3.63.28,1.16.65,2.31,1.12,3.4,1.73,3.96,5,5.23,8.79,3.15,2.04-1.12,3.9-2.63,5.66-4.17,1.6-1.4,2.95-3.08,4.48-4.71.09.48.16.87.24,1.25.62,2.89,1.67,5.58,3.82,7.71,1.39,1.38,3.03,2.14,5.05,2.04,2.29-.11,4.35-.92,6.07-2.3,3.48-2.8,6.73-5.88,10.21-8.67,1.52-1.22,1.73-2.59,1.4-4.41-.88.64-1.7,1.26-2.54,1.84-3.15,2.19-6.24,4.5-9.95,5.66-1.3.41-2.75.65-4.1.56-2.33-.16-4.01-1.46-4.81-3.73-.82-2.35-.06-4.32,1.75-5.78,2.48-2.01,5.11-3.82,7.69-5.7.2-.14.49-.15.91-.26.03.51,0,.89.08,1.26.12.59.23,1.63.46,1.66.67.09,1.57,0,2.07-.41,2.84-2.33,4.87-5.29,5.97-8.79.86-2.73-1.11-5.2-3.95-4.92-1.38.14-2.8.68-4.03,1.35-5.67,3.14-10.31,7.51-14.31,12.56-.7.89-1.41,1.98-1.55,3.05-.27,2.08-1.57,3.19-3.09,4.24-1.05.73-2.04,1.56-3.16,2.15-1.11.59-2.32,1.11-3.54,1.37-1.79.38-3.45-.06-4.53-1.7-1.03-1.57-.6-3.14.24-4.63.23-.41.56-.78.89-1.12,1.47-1.53,2.96-3.02,4.43-4.55,2.15-2.25,3.82-4.81,4.73-7.8.51-1.67-.34-2.71-2.07-2.83-1.81-.12-3.42.44-4.82,1.49-4.27,3.24-7.44,7.42-9.27,12.39-.75,2.03-1.74,3.44-3.46,4.52-1.11.7-2.18,1.48-3.32,2.15-.71.42-1.48.79-2.27,1.05-1.76.57-2.95-.32-2.66-2.13.2-1.23.6-2.54,1.3-3.54,2.25-3.2,4.65-6.28,7.04-9.37,1.25-1.61,1.26-2.36-.23-4.34-1.16-1.54-2.33-1.96-3.93-1.14-1.41.72-2.86,1.5-4.03,2.55-3.87,3.46-7.64,7.02-11.39,10.61-1.65,1.58-3.16,3.31-4.96,5.23,0-1.57-.07-2.8.03-4.02.05-.58.28-1.24.65-1.68,2.82-3.37,5.75-6.65,8.53-10.05,6.78-8.29,13.08-16.94,18.83-25.97.57-.9,1.04-1.89,1.46-2.87.43-1.01.11-1.76-.95-2.2-1.65-.69-3.18-.73-4.52.64-1.75,1.8-3.62,3.5-5.24,5.41-7.63,9-14.27,18.73-20.7,28.61-1.44,2.21-2.58,4.7-3.37,7.22-.5,1.6-1.16,2.8-2.49,3.71-.36.25-.68.55-1.03.82-2.34,1.75-4.74,3.4-7.59,4.25-1.78.53-3.54.55-4.99-.05,1.62-1.76,3.22-3.54,4.88-5.27,2.77-2.9,5.51-5.85,7.04-9.6.75-1.84,1.09-3.9,1.32-5.9.18-1.6-.41-2.16-1.92-1.99-1.52.17-3.18.36-4.46,1.09-2.48,1.41-4.78,3.17-7.08,4.87-2.08,1.54-4.08,3.19-6.11,4.79ZM8.01,46.94c-.14.26-.34.6-.51.95-2.14,4.36-4.32,8.71-6.38,13.11-.68,1.45-.93,3.05-.47,4.67.23.81.73,1.16,1.56,1.2,1.28.07,1.98-.78,2.6-1.65,1.48-2.08,2.92-4.19,4.32-6.33.68-1.04.95-2.17.35-3.4-.14-.28-.07-.78.08-1.07,1.02-1.94,2.12-3.84,3.13-5.78.32-.61.69-.72,1.34-.63,8.38,1.08,16.54.16,24.29-3.2,10.44-4.53,17.31-11.98,18.34-23.8.69-7.88-2.58-15.34-12.18-17.71-4.32-1.07-8.69-1.3-13.09-1.1-8.33.38-16.31,2.46-24.13,5.23-.4.14-.79.54-1.02.92-1.43,2.45-2.83,4.91-4.19,7.39-.71,1.29-1.35,2.62-1.96,3.97-.14.31-.17.92.01,1.07.26.22.77.19,1.17.19.22,0,.45-.16.67-.25,7.3-3.07,14.69-5.82,22.59-6.93,1.54-.22,3.1-.31,4.79-.48-.15.37-.17.49-.23.58-4.21,6.31-8.41,12.63-12.65,18.92-.23.35-.72.58-1.14.73-1.91.68-3.88,1.21-5.75,1.99-1.93.8-3.64,2.01-4.85,3.78-1.42,2.08-1.25,4.1.61,5.79.79.71,1.75,1.23,2.68,1.87ZM369.81,16.13c-.69.28-1.46.44-2.05.85-1.6,1.13-2.72,2.68-3.35,4.55-.45,1.34-.38,2.61.81,3.59,1.23,1.01,2.59,1.07,3.9.3,2.13-1.27,3.47-3.18,3.85-5.64.31-2.04-1.06-3.5-3.17-3.65Z"/>
  <path class="cls-6" d="M338.18,38.74c-2.49,1.36-4.57,3.22-6.38,5.36-3.5,4.15-6.95,8.34-10.42,12.52-.73.87-1.46,1.76-2.79,1.46-1.31-.29-1.92-1.31-2.17-2.47-.41-1.93-.64-3.9-.96-5.95-.84.72-1.73,1.55-2.68,2.29-2.75,2.12-5.45,4.3-8.31,6.26-3.01,2.06-6.32,2.25-9.7.84-.74-.31-1.46-.67-2.23-.85-.78-.18-1.61-.12-2.41-.25-1.35-.22-2.69-.5-4.33-.81-.88,2.07-1.9,4.46-2.93,6.86-1.29,3-2.5,6.04-3.94,8.97-.65,1.33-1.67,2.54-2.7,3.63-1.04,1.1-2.45.71-2.65-.79-.22-1.63-.22-3.35.06-4.97.62-3.63,2.24-6.91,4.27-9.93,4.32-6.43,8.48-12.95,12.03-19.84,1.21-2.34,2.4-4.68,3.59-7.03.15-.3.26-.63.17-1.07-1.12,1.33-2.21,2.69-3.36,4-3.2,3.67-6.49,7.27-9.62,11-3.2,3.8-6.6,7.39-10.61,10.32-1.45,1.06-3.15,1.88-4.86,2.44-1.94.64-3.32-.4-3.76-2.41-.59-2.68.16-5.23.84-7.77.29-1.08.68-2.13,1.02-3.19,0-.12,0-.25-.01-.37l-.19.2c-2.85,3.01-5.66,6.07-8.58,9.01-1.08,1.09-2.37,2.03-3.69,2.81-1.5.89-2.3.67-3.52-.56-2.18-2.19-3.41-4.88-4.07-7.86-.1-.45-.17-.91-.26-1.42-2.19,2.07-4.23,4.15-6.43,6.04-1.44,1.24-3.01,2.41-4.69,3.28-3.01,1.54-5.58.23-6.37-3.08-.58-2.44-.34-4.82.61-7.15,1.46-3.55,3.67-6.62,5.99-9.63.21-.28.42-.56.85-1.13-1.47.25-2.64.54-3.83.62-2.99.21-5.1,1.3-6.62,4.19-1.24,2.36-3.31,4.42-5.38,6.19-3.39,2.9-7.06,5.48-10.65,8.13-3.18,2.35-6.44,4.58-9.62,6.93-.85.63-1.62,1.4-2.3,2.21-3.79,4.53-7.49,9.14-11.35,13.61-.85.98-2.1,1.74-3.31,2.26-2.69,1.16-5.06-.76-4.69-3.68.32-2.57,1.68-4.62,3.36-6.48,2.7-3,5.94-5.33,9.37-7.4,1.22-.74,2.19-1.64,2.99-2.83,5.27-7.86,10.3-15.86,14.62-24.29.16-.31.19-.69.28-1.04.05.01.11.02.16.03,0-.05-.01-.1-.02-.15-.04.05-.08.1-.13.14-3.81,2.96-7.62,5.93-11.44,8.88-3.13,2.42-6.22,4.89-9.41,7.22-1.44,1.05-3,2-4.63,2.71-3.06,1.34-6.03.51-8.16-2.08-2.75-3.34-3.33-7.27-2.93-11.39.66-6.8,3.81-12.52,7.9-17.8,5.91-7.63,13.69-12.85,22.26-17.02,5.47-2.66,11.1-4.87,17.08-6.1,1.24-.25,2.53-.32,3.8-.37,1.24-.04,2.23.54,2.96,1.54,1.56,2.15,1.47,5.85-.3,7.81-.9,1-1.91,1.99-3.05,2.66-3.29,1.95-6.67,3.74-10.03,5.57-.37.2-.84.25-1.34.23,1.72-2.75,5.42-3.74,6.32-7.46-1.32.42-2.47.73-3.56,1.16-12.91,5.06-23.83,12.72-31.74,24.3-1.78,2.61-3.24,5.4-4.02,8.5-.39,1.58-.26,3.03.99,4.19,1.26,1.17,2.77,1.07,4.15.42,1.83-.86,3.66-1.81,5.3-2.99,7.96-5.71,15.43-12.03,22.66-18.64.88-.8,1.48-1.9,2.36-2.7.93-.84,1.94-1.69,3.08-2.15,1.37-.56,2.68.01,3.63,1.16.9,1.08,1.1,2.27.38,3.55-4.03,7.11-8.04,14.24-12.11,21.33-1.44,2.51-3.01,4.94-4.33,7.62,1.74-1.09,3.51-2.12,5.2-3.27,3.07-2.09,6.22-4.09,9.1-6.42,1.67-1.35,2.89-3.25,4.28-4.85-.18-.25-.2-.29-.23-.31-2.64-1.7-3.07-3.02-1.78-5.96,1.29-2.93,3.15-5.46,5.64-7.49.67-.54,1.48-.94,2.29-1.26.39-.15,1.13-.15,1.31.08.24.33.23.98.1,1.42-.22.71-.62,1.37-.96,2.06,3.27-.39,6.51-.82,9.76-1.16,1.3-.13,2.85-.63,3.58,1.04.83,1.88,1.58,3.85.06,5.75-1.07,1.34-2.29,2.56-3.41,3.86-1.89,2.19-3.43,4.61-4.43,7.34-.41,1.12-.91,2.36.18,3.35,1.05.94,2.44.82,3.5.2,2.43-1.43,4.74-3.07,7.08-4.65.15-.1.28-.31.3-.49.3-2.05,1.48-3.6,2.85-5.02,5.67-5.89,12.1-10.66,19.9-13.34,1.64-.56,3.39-.91,5.12-1.07,1.79-.17,3.95,2.48,3.6,4.26-.07.37-.41.77-.74.98-.56.36-1.22.57-1.89.86.44,1.04.84,2.08,1.32,3.08.58,1.2.5,2.31-.25,3.39-1.41,2.03-2.84,4.05-4.24,6.09-.92,1.34-1.27,2.83-.99,4.44.28,1.65,1.25,2.47,2.92,2.34.85-.07,1.75-.31,2.51-.7,2.47-1.3,4.66-2.9,6.59-5.01,6.13-6.71,11.54-13.98,17.02-21.2,1.18-1.55,2.5-3.01,3.87-4.4,1.64-1.65,3.75-2.2,6.04-2.08,1.04.06,1.53.58,1.18,1.57-.36,1.03-.88,2.08-1.56,2.92-1.58,1.96-3.51,3.65-4.91,5.72-2.62,3.85-4.96,7.89-7.41,11.86-.07.11-.03.29-.04.44-.05.01-.11.02-.16.03.02.05.04.09.06.14.04-.05.08-.1.11-.15,2.03-1.6,4.03-3.26,6.11-4.79,2.31-1.7,4.6-3.46,7.08-4.87,1.28-.73,2.94-.92,4.46-1.09,1.51-.17,2.11.39,1.92,1.99-.23,1.99-.57,4.05-1.32,5.9-1.53,3.75-4.27,6.7-7.04,9.6-1.65,1.73-3.26,3.52-4.88,5.27,1.45.59,3.21.58,4.99.05,2.85-.84,5.25-2.49,7.59-4.25.35-.26.67-.57,1.03-.82,1.33-.91,1.98-2.11,2.49-3.71.79-2.51,1.93-5,3.37-7.22,6.42-9.87,13.06-19.61,20.7-28.61,1.62-1.91,3.49-3.61,5.24-5.41,1.34-1.38,2.87-1.33,4.52-.64,1.06.44,1.38,1.19.95,2.2-.42.99-.89,1.97-1.46,2.87-5.75,9.04-12.05,17.68-18.83,25.97-2.78,3.4-5.71,6.68-8.53,10.05-.37.44-.6,1.1-.65,1.68-.1,1.21-.03,2.44-.03,4.02,1.81-1.91,3.31-3.65,4.96-5.23,3.75-3.59,7.52-7.15,11.39-10.61,1.17-1.05,2.62-1.82,4.03-2.55,1.6-.82,2.78-.4,3.93,1.14,1.49,1.98,1.48,2.72.23,4.34-2.39,3.09-4.8,6.18-7.04,9.37-.7,1-1.11,2.32-1.3,3.54-.29,1.81.91,2.7,2.66,2.13.79-.26,1.56-.63,2.27-1.05,1.13-.67,2.2-1.45,3.32-2.15,1.72-1.08,2.71-2.49,3.46-4.52,1.84-4.97,5-9.15,9.27-12.39,1.4-1.06,3.01-1.62,4.82-1.49,1.73.12,2.57,1.16,2.07,2.83-.9,2.99-2.58,5.55-4.73,7.8-1.46,1.53-2.96,3.03-4.43,4.55-.33.34-.66.71-.89,1.12-.84,1.5-1.27,3.06-.24,4.63,1.07,1.64,2.74,2.07,4.53,1.7,1.23-.26,2.43-.78,3.54-1.37,1.12-.6,2.11-1.43,3.16-2.15,1.52-1.05,2.82-2.16,3.09-4.24.14-1.07.84-2.17,1.55-3.05,4-5.05,8.64-9.42,14.31-12.56,1.23-.68,2.65-1.22,4.03-1.35,2.85-.28,4.81,2.19,3.95,4.92-1.1,3.5-3.13,6.46-5.97,8.79-.5.41-1.4.5-2.07.41-.23-.03-.34-1.07-.46-1.66-.07-.37-.05-.76-.08-1.26-.42.11-.71.12-.91.26-2.58,1.88-5.22,3.69-7.69,5.7-1.8,1.46-2.57,3.44-1.75,5.78.8,2.27,2.47,3.57,4.81,3.73,1.35.09,2.8-.15,4.1-.56,3.71-1.16,6.8-3.48,9.95-5.66.84-.58,1.65-1.2,2.54-1.84.33,1.83.12,3.19-1.4,4.41-3.48,2.79-6.74,5.87-10.21,8.67-1.71,1.38-3.78,2.19-6.07,2.3-2.02.1-3.66-.66-5.05-2.04-2.15-2.14-3.2-4.82-3.82-7.71-.08-.39-.15-.78-.24-1.25-1.53,1.63-2.88,3.31-4.48,4.71-1.76,1.54-3.62,3.05-5.66,4.17-3.79,2.08-7.06.81-8.79-3.15-.47-1.09-.84-2.24-1.12-3.4-.28-1.15-.39-2.34-.59-3.63-1.98,1.88-3.81,3.77-5.8,5.48-1.87,1.6-3.87,3.08-5.91,4.47-.75.51-1.77.79-2.69.87-2.22.18-3.42-.97-3.59-3.21-.22-2.85.6-5.48,1.93-7.92,1.78-3.25,3.76-6.39,5.66-9.57.04-.09.07-.18.11-.28-.12.02-.23.05-.35.07ZM269.19,33.32c-.15,0-.32-.06-.44,0-5.52,2.61-11.12,5.12-15.91,8.97-1.45,1.17-2.62,2.77-3.63,4.36-.9,1.42-.94,3.11-.23,4.72.42.97,1.12,1.34,2.12.87.72-.34,1.43-.71,2.09-1.15,6.86-4.55,11.32-11.26,15.98-17.79.05-.05.09-.1.14-.15-.04,0-.07,0-.11-.01,0,.06,0,.12,0,.17ZM297.18,51.33c2.92-3.08,5.76-6.1,7.73-9.79.35-.66.63-1.38.81-2.11.42-1.65-.55-2.64-2.18-2.13-1.08.34-2.15.88-3.06,1.55-4.19,3.04-7.37,7.03-10.29,11.24-.03.04.02.14.05.29,2.37-.27,4.78-.63,6.94.95ZM294.06,32.7s-.05-.05-.07-.08c-.02.03-.05.05-.07.08.03.03.07.05.1.08.01-.03.03-.05.04-.08Z"/>
  <path class="cls-6" d="M118.9,45.94c-1.68,1.47-3.35,2.95-5.03,4.42-1.91,1.68-4.11,2.53-6.69,2.41-.46-.02-1.02.31-1.4.63-2.02,1.67-3.82,3.67-6.03,5.02-3.29,2.03-6.82,1.16-9.31-1.83-1.57-1.88-2.48-4.07-2.9-6.47-.07-.39-.14-.77-.23-1.28-1.97,1.87-3.79,3.7-5.73,5.41-1.55,1.37-3.2,2.64-4.85,3.89-.63.47-1.36.84-2.1,1.13-3.25,1.3-5.39-.18-5.36-3.68.02-2.58.8-4.98,2.01-7.19,1.77-3.21,3.73-6.31,5.61-9.46.04-.09.07-.18.11-.28l-.35.07c-2.49,1.36-4.57,3.22-6.38,5.37-3.5,4.15-6.95,8.34-10.43,12.52-.73.87-1.46,1.76-2.79,1.46-1.31-.29-1.88-1.32-2.18-2.47-1.34-5.25-1.12-10.48,1.45-15.25,2.34-4.34,5.15-8.44,7.93-12.52,5.17-7.59,10.47-15.1,16.65-21.92,1.2-1.33,2.53-2.55,3.91-3.7,1.3-1.09,3.4-1.07,4.61.08.37.35.52,1.26.36,1.78-.31,1.01-.85,1.98-1.43,2.88-5.75,9.04-12.05,17.68-18.83,25.97-2.78,3.4-5.71,6.67-8.52,10.05-.39.47-.61,1.18-.67,1.8-.1,1.18-.03,2.37-.03,3.93,1.08-1.15,1.94-2.06,2.79-2.97,4.28-4.54,8.57-9.06,13.53-12.87,1.29-.99,2.7-1.86,4.15-2.59,1.56-.79,2.74-.32,3.9,1.25,1.43,1.94,1.41,2.66.19,4.24-2.37,3.06-4.74,6.12-6.99,9.26-.67.94-1.11,2.14-1.35,3.29-.46,2.16.95,3.34,2.94,2.4,1.93-.91,3.71-2.17,5.55-3.29,1.5-.91,2.3-2.19,2.99-3.89,3.15-7.74,8.55-13.28,16.81-15.57,1.04-.29,2.24-.24,3.33-.09,2.86.38,3.52,1.76,2.12,4.39,2.53.41,2.8,2.28,2.7,4.3-.18,3.66-1.4,7.01-3.09,10.22-.17.32-.34.63-.5.92.83.95,1.71,1.2,2.84.37,1.96-1.42,3.98-2.86,5.57-4.65,3.06-3.44,5.84-7.14,8.73-10.73l-.29-.53c-2.62.2-5.23.4-8.02.62.09-.42.09-1.05.36-1.51,1.24-2.08,2.43-4.22,3.9-6.14,1.44-1.89,3.72-2.2,5.95-2.34,1.27-.08,2.56.02,3.83-.08.42-.03.93-.35,1.18-.69,1.15-1.53,2.12-3.19,3.34-4.66,1.43-1.73,3.38-2.49,5.66-2.26,1.68.17,2.04.89,1.08,2.24-1.05,1.46-2.17,2.86-3.25,4.3-.28.37-.51.77-.83,1.27,1.54.2,2.9.38,4.56.6-1.54,2.38-3.04,4.54-4.37,6.8-1.19,2.02-2.59,3.33-5.13,2.51-2.25-.72-3.38.42-4.39,2.34-1.9,3.64-4.17,7.1-5.18,11.13-.32,1.3-.45,2.68-.42,4.02.03,1.8,1.27,2.72,3,2.25,1.1-.3,2.22-.75,3.15-1.39,2.34-1.6,4.58-3.34,6.84-5.04.26-.2.5-.54.58-.85,1.29-5.33,4.56-9.33,8.61-12.78,2.58-2.19,5.41-4.02,8.83-4.55,1.38-.21,2.89-.13,4.26.16,1.95.42,2.42,1.81,1.43,3.54-.1.17-.19.34-.34.6,2.22.36,2.76,1.85,2.74,3.76-.04,3.85-1.33,7.34-3.06,10.7-.16.32-.34.63-.5.94.75.99,1.54,1.18,2.78.46,1.27-.74,2.45-1.63,3.78-2.53.14,1.66.23,3.02-1.35,4.22-2.3,1.74-4.58,3.17-7.61,2.94-.41-.03-.92.34-1.27.65-1.84,1.58-3.49,3.43-5.5,4.75-3.56,2.34-7.32,1.53-9.98-1.79-1.48-1.85-2.33-3.98-2.73-6.3-.05-.27-.11-.54-.21-1.02-.81.84-1.47,1.61-2.22,2.26-3.1,2.7-6.16,5.44-9.37,8-1.49,1.19-3.27,2.01-5.28,2.04-2.01.04-3.31-.83-4.09-2.69-.85-2.03-.63-4.08-.02-6.09.66-2.17,1.45-4.3,2.18-6.45,0-.12-.02-.24-.03-.36-.08.06-.15.11-.23.17ZM103.17,50.3c-2.13-6.02.76-10.86,3.2-15.9-3.29,2.14-6.44,4.37-9.48,6.74-1.45,1.14-2.57,2.64-3.02,4.5-.36,1.47-.66,2.96-.95,4.44-.28,1.43.44,2.62,1.86,3.06,1.39.43,2.78.42,4.07-.29,1.43-.79,2.82-1.66,4.33-2.55ZM153.79,50.29c-1.02-2.8-1.07-5.55-.09-8.19.95-2.58,2.18-5.06,3.34-7.71-3.77,2.41-7.67,4.5-10.58,7.86-.86.99-1.51,2.25-1.97,3.5-.5,1.37-.67,2.87-.96,4.31-.29,1.45.41,2.63,1.82,3.08,1.38.44,2.78.45,4.07-.26,1.46-.8,2.88-1.69,4.36-2.58Z"/>
  <path class="cls-6" d="M8.01,46.94c-.93-.64-1.89-1.16-2.68-1.87-1.86-1.68-2.03-3.7-.61-5.79,1.21-1.78,2.91-2.98,4.85-3.78,1.87-.78,3.84-1.31,5.75-1.99.42-.15.91-.39,1.14-.73,4.24-6.29,8.44-12.61,12.65-18.92.06-.09.09-.21.23-.58-1.7.17-3.25.27-4.79.48-7.9,1.1-15.29,3.86-22.59,6.93-.22.09-.44.25-.67.25-.4,0-.91.03-1.17-.19-.18-.15-.15-.76-.01-1.07.61-1.34,1.25-2.67,1.96-3.97,1.36-2.48,2.76-4.94,4.19-7.39.22-.38.61-.77,1.02-.92,7.82-2.77,15.8-4.86,24.13-5.23,4.4-.2,8.77.04,13.09,1.1,9.59,2.37,12.86,9.84,12.18,17.71-1.03,11.82-7.9,19.27-18.34,23.8-7.75,3.36-15.91,4.28-24.29,3.2-.64-.08-1.02.03-1.34.63-1.02,1.94-2.11,3.84-3.13,5.78-.16.3-.22.79-.08,1.07.59,1.23.33,2.36-.35,3.4-1.4,2.14-2.84,4.25-4.32,6.33-.62.87-1.32,1.72-2.6,1.65-.83-.04-1.33-.39-1.56-1.2-.46-1.63-.21-3.22.47-4.67,2.06-4.4,4.24-8.74,6.38-13.11.17-.35.37-.69.51-.95ZM22.32,32.38c.62-.03,1.04-.02,1.47-.07,1.31-.14,2.62-.33,3.93-.43.26-.02.55.29.82.45-.18.27-.32.59-.56.78-.2.16-.52.17-.79.22-1.88.37-3.76.73-5.64,1.11-.3.06-.71.13-.85.34-.81,1.25-1.54,2.55-2.38,3.96,1.15.07,2.06.13,2.97.18,6.86.38,13.48-.55,19.6-3.85,5.23-2.81,9.13-6.82,10.77-12.68.91-3.23-.23-5.63-3.25-7.11-.57-.28-1.17-.51-1.78-.7-3.82-1.21-7.79-1.18-11.74-1.38-.9-.04-1.8,0-2.69,0-.11,2.98-.51,4.2-2.19,6.88-2.34,3.71-4.68,7.42-7.02,11.14-.2.32-.38.66-.66,1.15Z"/>
  <path class="cls-1" d="M369.81,16.13c2.11.15,3.48,1.61,3.17,3.65-.38,2.46-1.72,4.37-3.85,5.64-1.31.78-2.67.71-3.9-.3-1.19-.98-1.26-2.25-.81-3.59.63-1.87,1.74-3.42,3.35-4.55.59-.42,1.36-.58,2.05-.85Z"/>
  <path class="cls-4" d="M269.16,33.31c-4.65,6.53-9.11,13.24-15.98,17.79-.66.44-1.38.81-2.09,1.15-1,.47-1.69.1-2.12-.87-.7-1.61-.66-3.3.23-4.72,1.01-1.59,2.18-3.2,3.63-4.36,4.79-3.85,10.39-6.36,15.91-8.97.12-.06.29,0,.44,0l-.03-.02Z"/>
  <path class="cls-3" d="M297.18,51.33c-2.17-1.58-4.57-1.22-6.94-.95-.03-.15-.08-.25-.05-.29,2.92-4.21,6.1-8.2,10.29-11.24.92-.67,1.98-1.21,3.06-1.55,1.63-.52,2.6.48,2.18,2.13-.18.73-.46,1.45-.81,2.11-1.98,3.69-4.81,6.71-7.73,9.79Z"/>
  <path class="cls-7" d="M205.83,35.95s.08-.1.13-.14c0,.05.01.1.02.15-.05-.01-.11-.02-.16-.03,0,0,.02.03.02.03Z"/>
  <path class="cls-7" d="M338.18,38.74c.12-.02.23-.05.35-.07-.04.09-.07.18-.11.28-.08-.07-.16-.14-.24-.21Z"/>
  <path class="cls-7" d="M294.12,40.5s-.08.1-.11.15c-.02-.05-.04-.09-.06-.14.05-.01.11-.02.16-.03,0,0,.02.02.02.02Z"/>
  <path class="cls-4" d="M269.19,33.32v-.17s.08,0,.11.01c-.05.05-.09.1-.14.15,0,0,.03.02.03.02Z"/>
  <path class="cls-7" d="M294.06,32.7l-.04.08s-.07-.05-.1-.08c.02-.03.05-.05.07-.08.02.03.05.05.07.08Z"/>
  <path class="cls-7" d="M263.12,47.16l.19-.2c0,.12,0,.25.01.37-.07-.06-.14-.11-.21-.17Z"/>
  <path class="cls-5" d="M103.17,50.3c-1.51.9-2.9,1.77-4.33,2.55-1.29.71-2.68.72-4.07.29-1.41-.44-2.14-1.63-1.86-3.06.29-1.49.59-2.97.95-4.44.45-1.86,1.57-3.36,3.02-4.5,3.04-2.37,6.19-4.6,9.48-6.74-2.44,5.04-5.33,9.88-3.2,15.9Z"/>
  <path class="cls-5" d="M153.79,50.29c-1.49.88-2.9,1.78-4.36,2.58-1.29.71-2.69.7-4.07.26-1.41-.45-2.11-1.63-1.82-3.08.29-1.45.46-2.94.96-4.31.45-1.24,1.1-2.5,1.97-3.5,2.92-3.36,6.81-5.45,10.58-7.86-1.17,2.66-2.39,5.13-3.34,7.71-.98,2.65-.93,5.39.09,8.19Z"/>
  <path class="cls-7" d="M76.66,38.74l.35-.07c-.04.09-.07.18-.11.28-.08-.07-.16-.14-.24-.21Z"/>
  <path class="cls-7" d="M118.9,45.94c.08-.06.15-.11.23-.17,0,.12.02.24.03.36-.09-.06-.17-.12-.26-.19Z"/>
  <path class="cls-2" d="M22.32,32.38c.28-.49.46-.83.66-1.15,2.34-3.71,4.68-7.42,7.02-11.14,1.69-2.68,2.08-3.9,2.19-6.88.89,0,1.79-.04,2.69,0,3.94.2,7.91.17,11.74,1.38.61.19,1.21.42,1.78.7,3.02,1.49,4.16,3.88,3.25,7.11-1.64,5.86-5.55,9.86-10.77,12.68-6.12,3.3-12.74,4.23-19.6,3.85-.91-.05-1.82-.11-2.97-.18.84-1.41,1.58-2.71,2.38-3.96.13-.21.55-.27.85-.34,1.88-.38,3.76-.74,5.64-1.11.27-.05.59-.07.79-.22.24-.19.38-.52.56-.78-.28-.16-.56-.47-.82-.45-1.31.1-2.62.29-3.93.43-.42.05-.85.04-1.47.07Z"/>
</svg>